<?xml version="1.0" encoding="UTF-8" standalone="no"?>
<!-- Created with Inkscape (http://www.inkscape.org/) -->

<svg
   version="1.1"
   id="svg1"
   width="900"
   height="900"
   viewBox="0 0 900 900"
   sodipodi:docname="logo.svg"
   inkscape:version="1.3.2 (091e20e, 2023-11-25, custom)"
   xmlns:inkscape="http://www.inkscape.org/namespaces/inkscape"
   xmlns:sodipodi="http://sodipodi.sourceforge.net/DTD/sodipodi-0.dtd"
   xmlns:xlink="http://www.w3.org/1999/xlink"
   xmlns="http://www.w3.org/2000/svg"
   xmlns:svg="http://www.w3.org/2000/svg">
  <defs
     id="defs1" />
  <sodipodi:namedview
     id="namedview1"
     pagecolor="#ffffff"
     bordercolor="#000000"
     borderopacity="0.25"
     inkscape:showpageshadow="2"
     inkscape:pageopacity="0.0"
     inkscape:pagecheckerboard="0"
     inkscape:deskcolor="#d1d1d1"
     showgrid="true"
     inkscape:zoom="0.25"
     inkscape:cx="358"
     inkscape:cy="830"
     inkscape:window-width="1920"
     inkscape:window-height="1057"
     inkscape:window-x="-8"
     inkscape:window-y="-8"
     inkscape:window-maximized="1"
     inkscape:current-layer="g1">
    <inkscape:grid
       id="grid1"
       units="px"
       originx="0"
       originy="0"
       spacingx="1"
       spacingy="1"
       empcolor="#0099e5"
       empopacity="0.30196078"
       color="#0099e5"
       opacity="0.14901961"
       empspacing="5"
       dotted="false"
       gridanglex="30"
       gridanglez="30"
       visible="true" />
  </sodipodi:namedview>
      <path
       style="fill:rgb(133, 233, 16);stroke-width:0.964"
       d="M 705.3175,194.67078 883.27917,182.38855 720.20907,11.244353 Z"
       id="RVerxKray"
       sodipodi:nodetypes="cccc" />
    <path
       style="fill:rgb(133, 233, 16);fill-opacity:1;stroke-width:0.964"
       d="M 373.98793,363.47782 320.05149,10.241981 14.536149,0.09799651 Z"
       id="LVerxKray"
       sodipodi:nodetypes="cccc" />
    <path
       style="fill:rgb(0, 222, 0);fill-opacity:1;stroke-width:0.964"
       d="M 719.35976,12.06359 610.89863,301.13542 512.60561,211.57768 Z"
       id="RVerx3SpravaNalevo"
       sodipodi:nodetypes="cccc" />
    <path
       style="fill:rgb(59, 190, 0);fill-opacity:1;stroke-width:0.964"
       d="M 720.20906,11.236934 694.86063,339.45993 138.70463,895.26964 610.89591,301.19792 625.79972,102.34251 Z"
       id="RVerx2SpravaNalevo"
       sodipodi:nodetypes="cccccc" />
    <path
       style="fill:rgb(0, 222, 0);fill-opacity:1;stroke-width:0.964"
       d="M 134.06079,891.63428 404.71994,573.13238 374.98086,360.95201 Z"
       id="LNiz"
       sodipodi:nodetypes="cccc" />
    <path
       style="fill:rgb(0, 205, 0);fill-opacity:1;stroke-width:0.964"
       d="m 404.71994,573.139 94.56643,-103.0485 c 0,0 100.96548,-83.53957 1.05555,-163.32856 -4.81651,-3.84651 -159.24871,-158.62388 -159.24871,-158.62388 z"
       id="center"
       sodipodi:nodetypes="ccscc" />
    <path
       style="fill:rgb(58, 190, 0);fill-opacity:1;stroke-width:0.964"
       d="M 672.03746,362.27029 320.0473,10.239836 341.0957,148.1409 499.81205,306.95491 c 0,0 97.82607,64.76807 -0.1875,162.78164 -98.01358,98.01358 -365.56532,421.90108 -365.56532,421.90108 0,0 -2.53492,5.81509 4.05053,4.05052 6.58545,-1.76456 533.9277,-533.41786 533.9277,-533.41786 z"
       id="CenterRight"
       sodipodi:nodetypes="ccccscsc" />
  
</svg>
